{
	"asset":{
		"generator":"Khronos glTF Blender I/O v4.2.70",
		"version":"2.0"
	},
	"extensionsUsed":[
		"KHR_materials_specular"
	],
	"scene":0,
	"scenes":[
		{
			"name":"Scene",
			"nodes":[
				0,
				1,
				2,
				3,
				4,
				5,
				6,
				7,
				8
			]
		}
	],
	"nodes":[
		{
			"mesh":0,
			"name":"can",
			"rotation":[
				0.7071068286895752,
				0,
				0,
				0.7071068286895752
			]
		},
		{
			"mesh":1,
			"name":"cantop",
			"rotation":[
				0.7071068286895752,
				0,
				0,
				0.7071068286895752
			]
		},
		{
			"mesh":2,
			"name":"hole",
			"rotation":[
				0.7071068286895752,
				0,
				0,
				0.7071068286895752
			]
		},
		{
			"mesh":3,
			"name":"nozle",
			"rotation":[
				0.7071068286895752,
				0,
				0,
				0.7071068286895752
			]
		},
		{
			"mesh":4,
			"name":"rings",
			"rotation":[
				0.7071068286895752,
				0,
				0,
				0.7071068286895752
			]
		},
		{
			"mesh":5,
			"name":"tube",
			"rotation":[
				0.7071068286895752,
				0,
				0,
				0.7071068286895752
			]
		},
		{
			"mesh":6,
			"name":"Body",
			"rotation":[
				0.7071068286895752,
				0,
				0,
				0.7071068286895752
			]
		},
		{
			"mesh":7,
			"name":"Label",
			"rotation":[
				0.7071068286895752,
				0,
				0,
				0.7071068286895752
			]
		},
		{
			"mesh":8,
			"name":"sprayer",
			"rotation":[
				0.7071068286895752,
				0,
				0,
				0.7071068286895752
			]
		}
	],
	"materials":[
		{
			"doubleSided":true,
			"extensions":{
				"KHR_materials_specular":{
					"specularFactor":0
				}
			},
			"name":"default",
			"pbrMetallicRoughness":{
				"baseColorFactor":[
					0.9066666960716248,
					0.9066666960716248,
					0.9066666960716248,
					1
				],
				"metallicFactor":0
			}
		},
		{
			"doubleSided":true,
			"extensions":{
				"KHR_materials_specular":{
					"specularFactor":0
				}
			},
			"name":"metal rim",
			"pbrMetallicRoughness":{
				"metallicFactor":0
			}
		},
		{
			"doubleSided":true,
			"name":"Material.001",
			"pbrMetallicRoughness":{
				"baseColorTexture":{
					"index":0
				},
				"metallicFactor":0,
				"roughnessFactor":0.5
			}
		}
	],
	"meshes":[
		{
			"name":"can",
			"primitives":[
				{
					"attributes":{
						"POSITION":0,
						"NORMAL":1
					},
					"indices":2,
					"material":0
				}
			]
		},
		{
			"name":"cantop",
			"primitives":[
				{
					"attributes":{
						"POSITION":3,
						"NORMAL":4
					},
					"indices":5,
					"material":0
				}
			]
		},
		{
			"name":"hole",
			"primitives":[
				{
					"attributes":{
						"POSITION":6,
						"NORMAL":7
					},
					"indices":8,
					"material":0
				}
			]
		},
		{
			"name":"nozle",
			"primitives":[
				{
					"attributes":{
						"POSITION":9,
						"NORMAL":10
					},
					"indices":11,
					"material":0
				}
			]
		},
		{
			"name":"rings",
			"primitives":[
				{
					"attributes":{
						"POSITION":12,
						"NORMAL":13
					},
					"indices":14,
					"material":0
				}
			]
		},
		{
			"name":"tube",
			"primitives":[
				{
					"attributes":{
						"POSITION":15,
						"NORMAL":16
					},
					"indices":17,
					"material":0
				}
			]
		},
		{
			"name":"Body",
			"primitives":[
				{
					"attributes":{
						"POSITION":18,
						"NORMAL":19,
						"TEXCOORD_0":20
					},
					"indices":21,
					"material":1
				}
			]
		},
		{
			"name":"Label",
			"primitives":[
				{
					"attributes":{
						"POSITION":22,
						"NORMAL":23,
						"TEXCOORD_0":24
					},
					"indices":25,
					"material":2
				}
			]
		},
		{
			"name":"sprayer",
			"primitives":[
				{
					"attributes":{
						"POSITION":26,
						"NORMAL":27,
						"TEXCOORD_0":28
					},
					"indices":29,
					"material":1
				}
			]
		}
	],
	"textures":[
		{
			"sampler":0,
			"source":0
		}
	],
	"images":[
		{
			"mimeType":"image/png",
			"name":"spray-cans3",
			"uri":"spray-cans3.png"
		}
	],
	"accessors":[
		{
			"bufferView":0,
			"componentType":5126,
			"count":480,
			"max":[
				1.0777801275253296,
				1.0777801275253296,
				-0.09216078370809555
			],
			"min":[
				-1.0777801275253296,
				-1.0777801275253296,
				-4.064765930175781
			],
			"type":"VEC3"
		},
		{
			"bufferView":1,
			"componentType":5126,
			"count":480,
			"type":"VEC3"
		},
		{
			"bufferView":2,
			"componentType":5123,
			"count":2868,
			"type":"SCALAR"
		},
		{
			"bufferView":3,
			"componentType":5126,
			"count":1408,
			"max":[
				1.06794273853302,
				1.06794273853302,
				-4.064765930175781
			],
			"min":[
				-1.06794273853302,
				-1.06794273853302,
				-4.715199947357178
			],
			"type":"VEC3"
		},
		{
			"bufferView":4,
			"componentType":5126,
			"count":1408,
			"type":"VEC3"
		},
		{
			"bufferView":5,
			"componentType":5123,
			"count":8436,
			"type":"SCALAR"
		},
		{
			"bufferView":6,
			"componentType":5126,
			"count":26,
			"max":[
				0.09974119067192078,
				0.19913050532341003,
				-4.998737335205078
			],
			"min":[
				-0.07540390640497208,
				0.08791825920343399,
				-5.171347141265869
			],
			"type":"VEC3"
		},
		{
			"bufferView":7,
			"componentType":5126,
			"count":26,
			"type":"VEC3"
		},
		{
			"bufferView":8,
			"componentType":5123,
			"count":144,
			"type":"SCALAR"
		},
		{
			"bufferView":9,
			"componentType":5126,
			"count":185,
			"max":[
				0.2286434918642044,
				0.22550255060195923,
				-4.812160491943359
			],
			"min":[
				-0.22929523885250092,
				-0.2324361652135849,
				-5.270423889160156
			],
			"type":"VEC3"
		},
		{
			"bufferView":10,
			"componentType":5126,
			"count":185,
			"type":"VEC3"
		},
		{
			"bufferView":11,
			"componentType":5123,
			"count":1098,
			"type":"SCALAR"
		},
		{
			"bufferView":12,
			"componentType":5126,
			"count":896,
			"max":[
				1.0871646404266357,
				1.0871646404266357,
				-0.01627887412905693
			],
			"min":[
				-1.0871646404266357,
				-1.0871646404266357,
				-4.234558582305908
			],
			"type":"VEC3"
		},
		{
			"bufferView":13,
			"componentType":5126,
			"count":896,
			"type":"VEC3"
		},
		{
			"bufferView":14,
			"componentType":5123,
			"count":5376,
			"type":"SCALAR"
		},
		{
			"bufferView":15,
			"componentType":5126,
			"count":64,
			"max":[
				0.056805603206157684,
				0.056805603206157684,
				-4.708341121673584
			],
			"min":[
				-0.056805603206157684,
				-0.056805603206157684,
				-4.912971496582031
			],
			"type":"VEC3"
		},
		{
			"bufferView":16,
			"componentType":5126,
			"count":64,
			"type":"VEC3"
		},
		{
			"bufferView":17,
			"componentType":5123,
			"count":372,
			"type":"SCALAR"
		},
		{
			"bufferView":18,
			"componentType":5126,
			"count":75634,
			"max":[
				2.391907215118408,
				2.391907215118408,
				-0.0005644140765070915
			],
			"min":[
				-2.391907215118408,
				-2.391907215118408,
				-11.501837730407715
			],
			"type":"VEC3"
		},
		{
			"bufferView":19,
			"componentType":5126,
			"count":75634,
			"type":"VEC3"
		},
		{
			"bufferView":20,
			"componentType":5126,
			"count":75634,
			"type":"VEC2"
		},
		{
			"bufferView":21,
			"componentType":5125,
			"count":233856,
			"type":"SCALAR"
		},
		{
			"bufferView":22,
			"componentType":5126,
			"count":10752,
			"max":[
				2.3889098167419434,
				2.388909339904785,
				-0.24363136291503906
			],
			"min":[
				-2.388909339904785,
				-2.3889098167419434,
				-10.246922492980957
			],
			"type":"VEC3"
		},
		{
			"bufferView":23,
			"componentType":5126,
			"count":10752,
			"type":"VEC3"
		},
		{
			"bufferView":24,
			"componentType":5126,
			"count":10752,
			"type":"VEC2"
		},
		{
			"bufferView":25,
			"componentType":5123,
			"count":36864,
			"type":"SCALAR"
		},
		{
			"bufferView":26,
			"componentType":5126,
			"count":16760,
			"max":[
				0.8003201484680176,
				0.8003201484680176,
				-11.501837730407715
			],
			"min":[
				-0.800485372543335,
				-0.8003201484680176,
				-12.31207275390625
			],
			"type":"VEC3"
		},
		{
			"bufferView":27,
			"componentType":5126,
			"count":16760,
			"type":"VEC3"
		},
		{
			"bufferView":28,
			"componentType":5126,
			"count":16760,
			"type":"VEC2"
		},
		{
			"bufferView":29,
			"componentType":5123,
			"count":53760,
			"type":"SCALAR"
		}
	],
	"bufferViews":[
		{
			"buffer":0,
			"byteLength":5760,
			"byteOffset":0,
			"target":34962
		},
		{
			"buffer":0,
			"byteLength":5760,
			"byteOffset":5760,
			"target":34962
		},
		{
			"buffer":0,
			"byteLength":5736,
			"byteOffset":11520,
			"target":34963
		},
		{
			"buffer":0,
			"byteLength":16896,
			"byteOffset":17256,
			"target":34962
		},
		{
			"buffer":0,
			"byteLength":16896,
			"byteOffset":34152,
			"target":34962
		},
		{
			"buffer":0,
			"byteLength":16872,
			"byteOffset":51048,
			"target":34963
		},
		{
			"buffer":0,
			"byteLength":312,
			"byteOffset":67920,
			"target":34962
		},
		{
			"buffer":0,
			"byteLength":312,
			"byteOffset":68232,
			"target":34962
		},
		{
			"buffer":0,
			"byteLength":288,
			"byteOffset":68544,
			"target":34963
		},
		{
			"buffer":0,
			"byteLength":2220,
			"byteOffset":68832,
			"target":34962
		},
		{
			"buffer":0,
			"byteLength":2220,
			"byteOffset":71052,
			"target":34962
		},
		{
			"buffer":0,
			"byteLength":2196,
			"byteOffset":73272,
			"target":34963
		},
		{
			"buffer":0,
			"byteLength":10752,
			"byteOffset":75468,
			"target":34962
		},
		{
			"buffer":0,
			"byteLength":10752,
			"byteOffset":86220,
			"target":34962
		},
		{
			"buffer":0,
			"byteLength":10752,
			"byteOffset":96972,
			"target":34963
		},
		{
			"buffer":0,
			"byteLength":768,
			"byteOffset":107724,
			"target":34962
		},
		{
			"buffer":0,
			"byteLength":768,
			"byteOffset":108492,
			"target":34962
		},
		{
			"buffer":0,
			"byteLength":744,
			"byteOffset":109260,
			"target":34963
		},
		{
			"buffer":0,
			"byteLength":907608,
			"byteOffset":110004,
			"target":34962
		},
		{
			"buffer":0,
			"byteLength":907608,
			"byteOffset":1017612,
			"target":34962
		},
		{
			"buffer":0,
			"byteLength":605072,
			"byteOffset":1925220,
			"target":34962
		},
		{
			"buffer":0,
			"byteLength":935424,
			"byteOffset":2530292,
			"target":34963
		},
		{
			"buffer":0,
			"byteLength":129024,
			"byteOffset":3465716,
			"target":34962
		},
		{
			"buffer":0,
			"byteLength":129024,
			"byteOffset":3594740,
			"target":34962
		},
		{
			"buffer":0,
			"byteLength":86016,
			"byteOffset":3723764,
			"target":34962
		},
		{
			"buffer":0,
			"byteLength":73728,
			"byteOffset":3809780,
			"target":34963
		},
		{
			"buffer":0,
			"byteLength":201120,
			"byteOffset":3883508,
			"target":34962
		},
		{
			"buffer":0,
			"byteLength":201120,
			"byteOffset":4084628,
			"target":34962
		},
		{
			"buffer":0,
			"byteLength":134080,
			"byteOffset":4285748,
			"target":34962
		},
		{
			"buffer":0,
			"byteLength":107520,
			"byteOffset":4419828,
			"target":34963
		}
	],
	"samplers":[
		{
			"magFilter":9729,
			"minFilter":9987
		}
	],
	"buffers":[
		{
			"byteLength":4527348,
			"uri":"untitled.bin"
		}
	]
}
